<svg
  xmlns="http://www.w3.org/2000/svg"
  xmlns:xlink="http://www.w3.org/1999/xlink"
  width="142"
  height="310"
  viewBox="0 0 142 310"
>
  <defs>
    <clipPath id="clip-path">
      <rect
        id="Rectangle_117"
        data-name="Rectangle 117"
        width="142"
        height="310"
        fill="none"
      />
    </clipPath>
    <clipPath id="clip-path-3">
      <rect
        id="Rectangle_101"
        data-name="Rectangle 101"
        width="5.108"
        height="6.156"
        transform="translate(78.884 144.16)"
        fill="none"
      />
    </clipPath>
    <clipPath id="clip-path-4">
      <rect
        id="Rectangle_102"
        data-name="Rectangle 102"
        width="43.389"
        height="62.115"
        transform="translate(97.048 72.828)"
        fill="none"
      />
    </clipPath>
    <clipPath id="clip-path-5">
      <rect
        id="Rectangle_103"
        data-name="Rectangle 103"
        width="75.35"
        height="86.278"
        transform="translate(66.473 63.147)"
        fill="none"
      />
    </clipPath>
    <clipPath id="clip-path-6">
      <rect
        id="Rectangle_104"
        data-name="Rectangle 104"
        width="9.985"
        height="38.052"
        transform="translate(128.215 80.498)"
        fill="none"
      />
    </clipPath>
    <clipPath id="clip-path-7">
      <rect
        id="Rectangle_105"
        data-name="Rectangle 105"
        width="12.46"
        height="12.696"
        transform="translate(117.346 120.488)"
        fill="none"
      />
    </clipPath>
    <clipPath id="clip-path-8">
      <rect
        id="Rectangle_106"
        data-name="Rectangle 106"
        width="5.688"
        height="5.49"
        transform="translate(35.107 151.868)"
        fill="none"
      />
    </clipPath>
    <clipPath id="clip-path-9">
      <rect
        id="Rectangle_107"
        data-name="Rectangle 107"
        width="38.326"
        height="63.199"
        transform="translate(4.059 70.429)"
        fill="none"
      />
    </clipPath>
    <clipPath id="clip-path-10">
      <rect
        id="Rectangle_108"
        data-name="Rectangle 108"
        width="70.214"
        height="90.492"
        transform="translate(0.177 63.681)"
        fill="none"
      />
    </clipPath>
    <clipPath id="clip-path-11">
      <rect
        id="Rectangle_109"
        data-name="Rectangle 109"
        width="14.427"
        height="36.138"
        transform="translate(4.875 72.887)"
        fill="none"
      />
    </clipPath>
    <clipPath id="clip-path-12">
      <rect
        id="Rectangle_110"
        data-name="Rectangle 110"
        width="6.367"
        height="15.927"
        transform="translate(5.655 111.87)"
        fill="none"
      />
    </clipPath>
    <clipPath id="clip-path-13">
      <rect
        id="Rectangle_111"
        data-name="Rectangle 111"
        width="5.512"
        height="5.942"
        transform="translate(60.053 87.153)"
        fill="none"
      />
    </clipPath>
    <clipPath id="clip-path-14">
      <rect
        id="Rectangle_112"
        data-name="Rectangle 112"
        width="41.947"
        height="58.063"
        transform="translate(41.745 3.421)"
        fill="none"
      />
    </clipPath>
    <clipPath id="clip-path-15">
      <rect
        id="Rectangle_113"
        data-name="Rectangle 113"
        width="71.059"
        height="89.849"
        transform="translate(37.767 0.177)"
        fill="none"
      />
    </clipPath>
    <clipPath id="clip-path-16">
      <rect
        id="Rectangle_114"
        data-name="Rectangle 114"
        width="23.075"
        height="32.172"
        transform="translate(44.397 5.846)"
        fill="none"
      />
    </clipPath>
    <clipPath id="clip-path-17">
      <rect
        id="Rectangle_115"
        data-name="Rectangle 115"
        width="3.097"
        height="17.056"
        transform="translate(43.805 39.927)"
        fill="none"
      />
    </clipPath>
  </defs>
  <g
    id="Vector_Smart_Object_copy_2"
    data-name="Vector Smart Object copy 2"
    transform="matrix(1, 0, 0, 1, 0, 0)"
  >
    <g id="Group_207" data-name="Group 207">
      <g id="Group_206" data-name="Group 206" clip-path="url(#clip-path)">
        <g id="Group_205" data-name="Group 205">
          <g id="Group_204" data-name="Group 204" clip-path="url(#clip-path)">
            <path
              id="Path_171"
              data-name="Path 171"
              d="M37.215,153.482l.635,6.905q.766,8.332,1.533,16.664.924,10.044,1.848,20.088.8,8.685,1.6,17.371.264,2.866.527,5.733.082.9.166,1.8a3.7,3.7,0,0,0,.086.94.448.448,0,0,1,.011.116l.181-.344a21.107,21.107,0,0,0-4.577,4.778,27.853,27.853,0,0,0-5.236,14.148c-.6,7.2,1.581,14.229,3.878,20.958,2.375,6.959,5.112,13.859,6.381,21.134a39.722,39.722,0,0,1,.322,12.461,36.485,36.485,0,0,1-4.83,13.331c-.276.467.765.438.974.084a36.952,36.952,0,0,0,4.943-13.881,41.415,41.415,0,0,0-.578-13.335c-1.72-8.837-5.467-17.09-7.988-25.7a44.252,44.252,0,0,1-2.163-13.213,28.126,28.126,0,0,1,2.2-10.54,24.675,24.675,0,0,1,7.069-9.612.914.914,0,0,0,.4-1.034q-.129-1.409-.259-2.817-.527-5.73-1.054-11.46-.744-8.083-1.487-16.167-.78-8.475-1.559-16.95-.648-7.041-1.3-14.084l-.674-7.325c-.01-.109-.02-.219-.03-.328-.039-.423-1.07-.184-1.028.275"
              fill="#494646"
            />
            <path
              id="Path_172"
              data-name="Path 172"
              d="M37.329,153.523l.635,6.906q.767,8.332,1.533,16.664l1.848,20.088,1.6,17.371q.263,2.866.527,5.733.082.9.166,1.8a4.206,4.206,0,0,0,.086.94.525.525,0,0,1,.011.116l.167-.4a21.067,21.067,0,0,0-4.587,4.8A27.991,27.991,0,0,0,34.1,241.707c-.6,7.2,1.584,14.242,3.882,20.974,2.375,6.959,5.112,13.859,6.381,21.134a39.663,39.663,0,0,1,.318,12.445,36.468,36.468,0,0,1-4.833,13.317c-.3.51.744.562.99.144a36.963,36.963,0,0,0,4.94-13.9,41.464,41.464,0,0,0-.582-13.351c-1.72-8.837-5.467-17.09-7.988-25.7a44.181,44.181,0,0,1-2.159-13.2,28.064,28.064,0,0,1,2.208-10.525,24.517,24.517,0,0,1,7.075-9.59.978.978,0,0,0,.39-1.086q-.129-1.408-.259-2.817-.527-5.73-1.054-11.46l-1.487-16.167q-.78-8.475-1.559-16.95-.648-7.042-1.3-14.084-.337-3.662-.674-7.325c-.01-.109-.02-.219-.03-.328-.046-.5-1.076-.249-1.028.275"
              fill="#494646"
            />
            <path
              id="Path_173"
              data-name="Path 173"
              d="M82.362,147.053l-2.383,4.56-6.034,11.544L65.767,178.8,57.1,195.378,49.511,209.9l-4.939,9.449a11.747,11.747,0,0,0-.979,1.873,1.01,1.01,0,0,0-.057.11s.4-.293-.06-.011a9.776,9.776,0,0,0-1.543,1.194,12.33,12.33,0,0,0-3.69,6.978,17.275,17.275,0,0,0,1.741,10.812,34.372,34.372,0,0,0,5.871,7.382c2.6,2.652,5.348,5.147,8,7.746a58.1,58.1,0,0,1,7.281,8.252,18.611,18.611,0,0,1,3.552,8.736,12.76,12.76,0,0,1-.445,4.631c-.067.236.939.1,1.016-.172,1.87-6.628-2.024-12.675-6.249-17.445-4.818-5.439-10.653-9.912-15.29-15.514a18.728,18.728,0,0,1-4.258-8.353,14.827,14.827,0,0,1,1.406-10.644,10.916,10.916,0,0,1,3.492-3.6c-.129.082.129-.082.2-.168a1.116,1.116,0,0,0,.066-.126c.136-.223.245-.468.366-.7l4.091-7.827,7.086-13.558,8.553-16.363,8.417-16.1,6.68-12.781,3.412-6.528.153-.292c.088-.168-.874-.1-1.016.173"
              fill="#494646"
            />
            <path
              id="Path_174"
              data-name="Path 174"
              d="M83.759,144.16l.316,8.395a8.31,8.31,0,0,0-6.9-3.466Z"
              fill="#ffd110"
            />
            <path
              id="Path_175"
              data-name="Path 175"
              d="M83.585,144.126l.106,2.828q.085,2.266.171,4.532.019.517.039,1.034l.345.048a8.418,8.418,0,0,0-6.512-3.544,5.668,5.668,0,0,0-.64-.012l.24.128,2.231-1.669,3.538-2.647.819-.613c.065-.049-.242-.168-.328-.1l-2.231,1.669-3.538,2.647-.819.613c-.087.065.212.13.241.128a6.822,6.822,0,0,1,1.535.129,8.137,8.137,0,0,1,3.269,1.339,7.4,7.4,0,0,1,1.852,1.906c.034.051.35.157.345.048l-.106-2.828-.17-4.532q-.02-.517-.039-1.034c0-.113-.352-.151-.348-.067"
              fill="#ce7a00"
            />
            <g
              id="Group_161"
              data-name="Group 161"
              opacity="0.8"
              style="mix-blend-mode: multiply;isolation: isolate"
            >
              <g id="Group_160" data-name="Group 160">
                <g
                  id="Group_159"
                  data-name="Group 159"
                  clip-path="url(#clip-path-3)"
                >
                  <path
                    id="Path_176"
                    data-name="Path 176"
                    d="M81.475,148.062a5.524,5.524,0,0,0-2.591-.254l4.876-3.647.232,6.156a4.49,4.49,0,0,0-2.517-2.254"
                    fill="#ffc200"
                  />
                </g>
              </g>
            </g>
            <path
              id="Path_177"
              data-name="Path 177"
              d="M82.314,145.957c-16.955-9.344-20.924-34.679-8.866-56.589s35.579-32.1,52.533-22.753,20.925,34.679,8.866,56.59-35.578,32.1-52.533,22.753"
              fill="#ffe631"
            />
            <path
              id="Path_178"
              data-name="Path 178"
              d="M82.465,145.912a28.155,28.155,0,0,1-8.578-7.362,33.1,33.1,0,0,1-5.32-10.27,42.034,42.034,0,0,1-1.912-12.152,50.9,50.9,0,0,1,1.587-13.183,58.239,58.239,0,0,1,13.174-24.52,51.568,51.568,0,0,1,9.728-8.381,43.116,43.116,0,0,1,10.7-5.168,34.078,34.078,0,0,1,11.086-1.65,28.4,28.4,0,0,1,10.5,2.258,27.654,27.654,0,0,1,9.219,6.479,31.426,31.426,0,0,1,6.081,9.585,39.669,39.669,0,0,1,2.762,11.845,48.973,48.973,0,0,1-.733,13.018,55.957,55.957,0,0,1-4.389,13.454,58.521,58.521,0,0,1-7.414,11.853,53.212,53.212,0,0,1-9.332,9.06,45.415,45.415,0,0,1-10.514,5.965,36.126,36.126,0,0,1-11.056,2.547A29.258,29.258,0,0,1,87.319,148a27.642,27.642,0,0,1-4.854-2.092c-.082-.045-.411.028-.3.089a28.306,28.306,0,0,0,10.269,3.28,32.85,32.85,0,0,0,10.922-.6,40.9,40.9,0,0,0,10.861-4.143,49.441,49.441,0,0,0,10.163-7.469,56.169,56.169,0,0,0,8.612-10.448,58.46,58.46,0,0,0,6.286-13.139,53.078,53.078,0,0,0,2.638-13.5A44.538,44.538,0,0,0,140.89,87.2a35.219,35.219,0,0,0-4.519-10.932,28.86,28.86,0,0,0-7.863-8.227,27.9,27.9,0,0,0-10.024-4.317,31.276,31.276,0,0,0-10.822-.327,38.7,38.7,0,0,0-10.987,3.315,47.433,47.433,0,0,0-10.381,6.667,54.762,54.762,0,0,0-9.06,9.747,58.691,58.691,0,0,0-7.018,12.691A54.712,54.712,0,0,0,66.68,109.37a46.8,46.8,0,0,0,.145,13.015A37.4,37.4,0,0,0,70.5,133.836a29.888,29.888,0,0,0,7.114,9.027A27.9,27.9,0,0,0,82.163,146c.082.045.411-.028.3-.089"
              fill="#ce7a00"
            />
            <g
              id="Group_164"
              data-name="Group 164"
              opacity="0.5"
              style="mix-blend-mode: screen;isolation: isolate"
            >
              <g id="Group_163" data-name="Group 163">
                <g
                  id="Group_162"
                  data-name="Group 162"
                  clip-path="url(#clip-path-4)"
                >
                  <path
                    id="Path_179"
                    data-name="Path 179"
                    d="M107.43,134.2c-10.222-3.7-13.442-20.276-7.2-37.021s19.6-27.319,29.822-23.617,13.442,20.276,7.194,37.021-19.6,27.318-29.82,23.617"
                    fill="#ffe631"
                  />
                </g>
              </g>
            </g>
            <g
              id="Group_167"
              data-name="Group 167"
              opacity="0.8"
              style="mix-blend-mode: multiply;isolation: isolate"
            >
              <g id="Group_166" data-name="Group 166">
                <g
                  id="Group_165"
                  data-name="Group 165"
                  clip-path="url(#clip-path-5)"
                >
                  <path
                    id="Path_180"
                    data-name="Path 180"
                    d="M82.314,145.957c16.955,9.344,40.475-.843,52.533-22.753s8.089-47.245-8.866-56.589-40.473.844-52.533,22.753-8.089,47.246,8.866,56.589M80.327,90.684c7.53-19.143,26.55-29.577,42.48-23.3s22.739,26.88,15.209,46.024-26.549,29.576-42.48,23.3-22.74-26.88-15.21-46.024"
                    fill="#ffc200"
                  />
                </g>
              </g>
            </g>
            <g
              id="Group_170"
              data-name="Group 170"
              style="mix-blend-mode: screen;isolation: isolate"
            >
              <g id="Group_169" data-name="Group 169">
                <g
                  id="Group_168"
                  data-name="Group 168"
                  clip-path="url(#clip-path-6)"
                >
                  <path
                    id="Path_181"
                    data-name="Path 181"
                    d="M137.312,103.787a44.2,44.2,0,0,1-5.63,14.764c-1.15-.358-2.3-.705-3.467-1.018,3.859-8.366,6.151-19.155,4.991-33.7-.717-8.988,7.678,1.044,4.106,19.955"
                    fill="#ffe631"
                  />
                </g>
              </g>
            </g>
            <g
              id="Group_173"
              data-name="Group 173"
              style="mix-blend-mode: screen;isolation: isolate"
            >
              <g id="Group_172" data-name="Group 172">
                <g
                  id="Group_171"
                  data-name="Group 171"
                  clip-path="url(#clip-path-7)"
                >
                  <path
                    id="Path_182"
                    data-name="Path 182"
                    d="M129.805,121.4a42.415,42.415,0,0,1-12.46,11.781,59.143,59.143,0,0,0,9.391-12.7c1.029.287,2.05.6,3.069.915"
                    fill="#ffe631"
                  />
                </g>
              </g>
            </g>
            <path
              id="Path_183"
              data-name="Path 183"
              d="M37.9,151.868l-3.808,7.486a8.308,8.308,0,0,1,7.721-.245Z"
              fill="#e80054"
            />
            <path
              id="Path_184"
              data-name="Path 184"
              d="M37.726,151.834l-1.283,2.522L34.387,158.4l-.469.922c-.044.085.271.126.317.1a7.886,7.886,0,0,1,6.984-.486,5.116,5.116,0,0,1,.494.22c.033.018.32.062.271-.029l-1.325-2.452-2.1-3.889-.487-.9c-.05-.094-.385-.105-.343-.028l1.325,2.452,2.1,3.889.487.9.271-.029a7.564,7.564,0,0,0-1.663-.6,8.793,8.793,0,0,0-3.76-.155,7.653,7.653,0,0,0-2.541.976l.318.1,1.283-2.522,2.056-4.042.469-.922c.035-.069-.3-.171-.348-.067"
              fill="#72001e"
            />
            <g
              id="Group_176"
              data-name="Group 176"
              opacity="0.7"
              style="mix-blend-mode: multiply;isolation: isolate"
            >
              <g id="Group_175" data-name="Group 175">
                <g
                  id="Group_174"
                  data-name="Group 174"
                  clip-path="url(#clip-path-8)"
                >
                  <path
                    id="Path_185"
                    data-name="Path 185"
                    d="M38.336,156.368a5.523,5.523,0,0,1,2.459.857l-2.9-5.358-2.793,5.49a4.482,4.482,0,0,1,3.229-.989"
                    fill="#ce001e"
                  />
                </g>
              </g>
            </g>
            <path
              id="Path_186"
              data-name="Path 186"
              d="M38.458,154.105C57.767,152.747,72,131.419,70.245,106.468S51.419,62.392,32.111,63.75-1.429,86.436.323,111.387s18.827,44.076,38.135,42.718"
              fill="#e80054"
            />
            <path
              id="Path_187"
              data-name="Path 187"
              d="M38.563,154.191a28.292,28.292,0,0,0,10.622-2.934,32.821,32.821,0,0,0,9.108-6.866,41.6,41.6,0,0,0,6.877-9.95,50.4,50.4,0,0,0,4.257-12.446A57.069,57.069,0,0,0,70.5,108,57.955,57.955,0,0,0,68.106,93.85a52.033,52.033,0,0,0-5.384-12.1,43.536,43.536,0,0,0-7.791-9.51A34.715,34.715,0,0,0,45.385,66a28.987,28.987,0,0,0-10.7-2.4,27.9,27.9,0,0,0-10.9,1.924,31.263,31.263,0,0,0-9.482,5.957,39.338,39.338,0,0,0-7.446,9.258A48.4,48.4,0,0,0,1.9,92.672,55.647,55.647,0,0,0,.013,106.456a58.719,58.719,0,0,0,1.57,14.283,53.609,53.609,0,0,0,4.758,12.725,45.663,45.663,0,0,0,7.272,10.175,36.653,36.653,0,0,0,9.162,7.049,30.046,30.046,0,0,0,10.4,3.357,28.037,28.037,0,0,0,5.385.145c.182-.012-.117-.178-.208-.172a27.86,27.86,0,0,1-11-1.479,32.681,32.681,0,0,1-9.919-5.629A41.7,41.7,0,0,1,9.368,138a50.48,50.48,0,0,1-5.8-11.589,57,57,0,0,1-2.95-13.5A57.871,57.871,0,0,1,.988,98.722a52.065,52.065,0,0,1,3.528-12.56,43.6,43.6,0,0,1,6.256-10.484,34.71,34.71,0,0,1,8.46-7.555A28.607,28.607,0,0,1,29.5,64.162a27.5,27.5,0,0,1,11.115.387,30.941,30.941,0,0,1,10.243,4.68,39.333,39.333,0,0,1,8.583,8.208,48.552,48.552,0,0,1,6.4,11,55.689,55.689,0,0,1,3.68,13.076,58.543,58.543,0,0,1,.457,14.325,53.711,53.711,0,0,1-2.81,12.976,45.917,45.917,0,0,1-5.591,11,36.731,36.731,0,0,1-8.024,8.4A29.622,29.622,0,0,1,43.7,153.1a27.656,27.656,0,0,1-5.348.915c-.182.013.117.179.208.172"
              fill="#72001e"
            />
            <g
              id="Group_179"
              data-name="Group 179"
              opacity="0.3"
              style="mix-blend-mode: screen;isolation: isolate"
            >
              <g id="Group_178" data-name="Group 178">
                <g
                  id="Group_177"
                  data-name="Group 177"
                  clip-path="url(#clip-path-9)"
                >
                  <path
                    id="Path_188"
                    data-name="Path 188"
                    d="M22.136,133.621c10.566.364,19.618-13.486,20.218-30.934S34.876,70.8,24.309,70.436,4.691,83.921,4.091,101.369s7.479,31.887,18.045,32.251"
                    fill="#ff8d8d"
                  />
                </g>
              </g>
            </g>
            <g
              id="Group_182"
              data-name="Group 182"
              opacity="0.7"
              style="mix-blend-mode: multiply;isolation: isolate"
            >
              <g id="Group_181" data-name="Group 181">
                <g
                  id="Group_180"
                  data-name="Group 180"
                  clip-path="url(#clip-path-10)"
                >
                  <path
                    id="Path_189"
                    data-name="Path 189"
                    d="M70.246,106.468C68.492,81.517,51.419,62.392,32.111,63.75S-1.429,86.436.323,111.387s18.827,44.077,38.135,42.719S72,131.419,70.246,106.468M30.336,140.157c-17.091-1-29.976-18.455-28.78-38.994S17.578,64.783,34.67,65.78s29.976,18.455,28.78,38.994-16.021,36.38-33.113,35.383"
                    fill="#ce001e"
                  />
                </g>
              </g>
            </g>
            <g
              id="Group_185"
              data-name="Group 185"
              opacity="0.5"
              style="mix-blend-mode: screen;isolation: isolate"
            >
              <g id="Group_184" data-name="Group 184">
                <g
                  id="Group_183"
                  data-name="Group 183"
                  clip-path="url(#clip-path-11)"
                >
                  <path
                    id="Path_190"
                    data-name="Path 190"
                    d="M6.231,92.729a44.248,44.248,0,0,0-1.084,15.765c1.194.158,2.387.327,3.574.532.007-9.214,2.453-19.969,9.608-32.684,4.423-7.857-7.406-2.277-12.1,16.387"
                    fill="#ff8d8d"
                  />
                </g>
              </g>
            </g>
            <g
              id="Group_188"
              data-name="Group 188"
              opacity="0.5"
              style="mix-blend-mode: screen;isolation: isolate"
            >
              <g id="Group_187" data-name="Group 187">
                <g
                  id="Group_186"
                  data-name="Group 186"
                  clip-path="url(#clip-path-12)"
                >
                  <path
                    id="Path_191"
                    data-name="Path 191"
                    d="M5.655,111.87A42.468,42.468,0,0,0,12.021,127.8a59.11,59.11,0,0,1-3.2-15.467c-1.054-.172-2.111-.321-3.17-.46"
                    fill="#ff8d8d"
                  />
                </g>
              </g>
            </g>
            <path
              id="Path_192"
              data-name="Path 192"
              d="M62.022,90.48l-.788,5.709-2.082,15.09q-1.461,10.585-2.922,21.17L52.9,156.572l-3.312,24q-1.415,10.252-2.83,20.5-.961,6.968-1.923,13.936-.243,1.757-.485,3.515c-.226,1.637-1.427,2.91-2.256,4.32-2.42,4.116-4.567,8.5-5.138,13.3-.708,5.948,1.108,11.778,3.889,16.981,3.07,5.743,6.977,11,10.242,16.63,2.168,3.738,3.852,7.692,3.822,12.084a31.4,31.4,0,0,1-1,7.073c-.1.412.941.263,1.031-.115,1.042-4.351,1.476-8.816.074-13.138-1.488-4.589-4.381-8.683-6.953-12.711-3.839-6.011-8.122-12.074-9.667-19.159a24.528,24.528,0,0,1,1.632-15.08,55.142,55.142,0,0,1,3.322-6.313q.447-.752.9-1.5a9.659,9.659,0,0,0,1-1.642c.015-.044.016-.085.029-.13a16.051,16.051,0,0,0,.3-2.183l1.636-11.853,2.661-19.28q1.613-11.687,3.226-23.375,1.681-12.182,3.362-24.363l3.061-22.183L61.862,99c.38-2.757.8-5.511,1.141-8.272.015-.122.034-.243.05-.364.06-.437-.979-.265-1.031.115"
              fill="#494646"
            />
            <path
              id="Path_193"
              data-name="Path 193"
              d="M64.224,87.153l-5.688,6.179a8.308,8.308,0,0,1,7.5,1.851Z"
              fill="#00519b"
            />
            <path
              id="Path_194"
              data-name="Path 194"
              d="M64.06,87.1l-1.916,2.082L59.073,92.52l-.7.761c-.079.086.234.136.278.124a7.84,7.84,0,0,1,6.818,1.444,4.951,4.951,0,0,1,.411.34c.043.041.356.132.328.008l-.614-2.719-.973-4.312-.225-1c-.022-.1-.367-.135-.343-.028l.614,2.719.973,4.312.225,1,.329.008a7.426,7.426,0,0,0-1.426-1.016A8.8,8.8,0,0,0,61.13,93a7.785,7.785,0,0,0-2.707.26l.278.124L60.617,91.3l3.071-3.336.7-.761c.066-.072-.258-.179-.329-.1"
              fill="#002a75"
            />
            <g
              id="Group_191"
              data-name="Group 191"
              opacity="0.7"
              style="mix-blend-mode: multiply;isolation: isolate"
            >
              <g id="Group_190" data-name="Group 190">
                <g
                  id="Group_189"
                  data-name="Group 189"
                  clip-path="url(#clip-path-13)"
                >
                  <path
                    id="Path_195"
                    data-name="Path 195"
                    d="M63.43,91.605a5.53,5.53,0,0,1,2.135,1.49l-1.341-5.942-4.171,4.531a4.483,4.483,0,0,1,3.377-.079"
                    fill="#297bcb"
                  />
                </g>
              </g>
            </g>
            <path
              id="Path_196"
              data-name="Path 196"
              d="M64.157,89.459c18.958,3.911,38.417-12.777,43.465-37.275S101.393,4.657,82.435.746,44.019,13.524,38.971,38.021,45.2,85.548,64.157,89.459"
              fill="#297bcb"
            />
            <path
              id="Path_197"
              data-name="Path 197"
              d="M64.181,89.538a28.415,28.415,0,0,0,10.9.081,32.7,32.7,0,0,0,10.5-4,41.221,41.221,0,0,0,9.369-7.632,50.193,50.193,0,0,0,7.464-10.632,56.754,56.754,0,0,0,4.934-13.125A58.068,58.068,0,0,0,108.991,39.9a52.233,52.233,0,0,0-1.819-13.213,43.781,43.781,0,0,0-4.879-11.371A34.719,34.719,0,0,0,94.75,6.594a28.983,28.983,0,0,0-9.738-5.26A28.056,28.056,0,0,0,74.083.22,31.191,31.191,0,0,0,63.473,3.269a38.991,38.991,0,0,0-9.721,6.814,48.172,48.172,0,0,0-7.943,9.9,55.367,55.367,0,0,0-5.624,12.574,58.678,58.678,0,0,0-2.517,14.286,53.951,53.951,0,0,0,1.016,13.607A45.889,45.889,0,0,0,42.9,72.428a36.8,36.8,0,0,0,6.893,9.357,29.848,29.848,0,0,0,9.238,6.161,28.348,28.348,0,0,0,5.15,1.592c.236.049.1-.128-.048-.159a27.829,27.829,0,0,1-10.258-4.453,32.957,32.957,0,0,1-8-8.092A41.769,41.769,0,0,1,40.5,66.015a50.633,50.633,0,0,1-2.448-12.758,56.986,56.986,0,0,1,.86-13.992,57.91,57.91,0,0,1,4.168-13.357,51.925,51.925,0,0,1,6.812-11.146A43.655,43.655,0,0,1,58.66,6.448,34.651,34.651,0,0,1,68.8,1.463,28.518,28.518,0,0,1,79.764.409,27.33,27.33,0,0,1,90.446,3.842a31.219,31.219,0,0,1,8.587,7.319,39.53,39.53,0,0,1,6.027,10.227,48.694,48.694,0,0,1,3.183,12.357,55.686,55.686,0,0,1-.029,13.778,58.626,58.626,0,0,1-3.408,13.686,53.7,53.7,0,0,1-6.2,11.713,45.819,45.819,0,0,1-8.372,9.084,36.686,36.686,0,0,1-9.923,5.878A29.6,29.6,0,0,1,69.58,89.941a27.5,27.5,0,0,1-5.447-.562c-.236-.048-.1.128.048.159"
              fill="#003a7a"
            />
            <g
              id="Group_194"
              data-name="Group 194"
              opacity="0.3"
              style="mix-blend-mode: screen;isolation: isolate"
            >
              <g id="Group_193" data-name="Group 193">
                <g
                  id="Group_192"
                  data-name="Group 192"
                  clip-path="url(#clip-path-14)"
                >
                  <path
                    id="Path_198"
                    data-name="Path 198"
                    d="M48.682,60.4C57.29,64.727,70.551,55.724,78.3,40.29S85.362,8.836,76.754,4.507,54.884,9.181,47.132,24.615,40.075,56.07,48.682,60.4"
                    fill="#297bcb"
                  />
                </g>
              </g>
            </g>
            <g
              id="Group_197"
              data-name="Group 197"
              opacity="0.7"
              style="mix-blend-mode: multiply;isolation: isolate"
            >
              <g id="Group_196" data-name="Group 196">
                <g
                  id="Group_195"
                  data-name="Group 195"
                  clip-path="url(#clip-path-15)"
                >
                  <path
                    id="Path_199"
                    data-name="Path 199"
                    d="M107.622,52.183c5.046-24.5-6.23-47.526-25.186-51.437S44.019,13.524,38.971,38.021,45.2,85.548,64.158,89.459s38.417-12.777,43.465-37.275M60.1,73.833C43.916,68.254,36.222,47.962,42.919,28.51S68.165-2.187,84.352,3.392s23.88,25.872,17.184,45.323S76.29,79.413,60.1,73.833"
                    fill="#297bcb"
                  />
                </g>
              </g>
            </g>
            <g
              id="Group_200"
              data-name="Group 200"
              opacity="0.5"
              style="mix-blend-mode: screen;isolation: isolate"
            >
              <g id="Group_199" data-name="Group 199">
                <g
                  id="Group_198"
                  data-name="Group 198"
                  clip-path="url(#clip-path-16)"
                >
                  <path
                    id="Path_200"
                    data-name="Path 200"
                    d="M49.7,21.653a44.241,44.241,0,0,0-5.3,14.886c1.107.474,2.209.96,3.3,1.478,2.494-8.87,7.752-18.564,18.073-28.872,6.378-6.37-6.517-4.195-16.072,12.507"
                    fill="#297bcb"
                  />
                </g>
              </g>
            </g>
            <g
              id="Group_203"
              data-name="Group 203"
              opacity="0.5"
              style="mix-blend-mode: screen;isolation: isolate"
            >
              <g id="Group_202" data-name="Group 202">
                <g
                  id="Group_201"
                  data-name="Group 201"
                  clip-path="url(#clip-path-17)"
                >
                  <path
                    id="Path_201"
                    data-name="Path 201"
                    d="M43.974,39.927A42.477,42.477,0,0,0,45.8,56.983a59.14,59.14,0,0,1,1.1-15.756c-.968-.45-1.945-.88-2.928-1.3"
                    fill="#297bcb"
                  />
                </g>
              </g>
            </g>
            <path
              id="Path_202"
              data-name="Path 202"
              d="M56.637,227.153a2.466,2.466,0,0,1-2.173,1.762,7.85,7.85,0,0,1-3.537-.652,11.461,11.461,0,0,1-3.153-1.8,9.378,9.378,0,0,1-2.353-3.3c-1.312-2.779-2.008-5.978-4.364-8.126a8.777,8.777,0,0,0-6.787-2.093,4.821,4.821,0,0,0-3.054,1.412,3.971,3.971,0,0,0-.85,3.065c.2,1.947,1.8,3.132,3.543,3.7a19.012,19.012,0,0,0,6.733.689,34.446,34.446,0,0,0,5.729-.708,14.553,14.553,0,0,1,6.242.033c2.062.482,4.068,1.7,4.26,4.006a5.3,5.3,0,0,1-.237,2c-.105.336.921.2,1.026-.136a4.965,4.965,0,0,0-.135-3.558,4.742,4.742,0,0,0-2.115-2.08,12.7,12.7,0,0,0-6.623-1.1c-1.876.112-3.492.578-5.35.791a26.12,26.12,0,0,1-6.707.027c-1.787-.26-3.979-.839-4.918-2.553a4.068,4.068,0,0,1-.3-2.942,2.752,2.752,0,0,1,2.066-2.012,6.949,6.949,0,0,1,3.4.172,7.426,7.426,0,0,1,3.212,1.762c2.343,2.207,2.972,5.463,4.357,8.245a9.279,9.279,0,0,0,2.33,3.145,12.077,12.077,0,0,0,3.132,1.8c2.049.818,5.026,1.409,6.8-.318a3.461,3.461,0,0,0,.846-1.375c.113-.326-.911-.2-1.026.136"
              fill="#494646"
            />
          </g>
        </g>
      </g>
    </g>
  </g>
</svg>
