<svg
  xmlns="http://www.w3.org/2000/svg"
  width="178"
  height="177"
  viewBox="0 0 178 177"
>
  <g
    id="Vector_Smart_Object_copy"
    data-name="Vector Smart Object copy"
    transform="translate(-151.232 -435.505)"
  >
    <g id="Group_7" data-name="Group 7">
      <g id="Group_5" data-name="Group 5">
        <rect
          id="Rectangle_9"
          data-name="Rectangle 9"
          width="1.585"
          height="160.345"
          transform="translate(238.445 445.283)"
          fill="#979696"
        />
        <rect
          id="Rectangle_10"
          data-name="Rectangle 10"
          width="1.576"
          height="161.251"
          transform="matrix(0, 1, -1, 0, 319.862, 524.668)"
          fill="#979696"
        />
        <rect
          id="Rectangle_11"
          data-name="Rectangle 11"
          width="1.585"
          height="160.345"
          transform="translate(295.687 468.208) rotate(45)"
          fill="#979696"
        />
        <rect
          id="Rectangle_12"
          data-name="Rectangle 12"
          width="1.585"
          height="160.345"
          transform="translate(296.808 581.589) rotate(135)"
          fill="#979696"
        />
      </g>
      <g id="Group_6" data-name="Group 6">
        <rect
          id="Rectangle_13"
          data-name="Rectangle 13"
          width="1.585"
          height="160.345"
          transform="translate(266.86 450.131) rotate(20.598)"
          fill="#979696"
        />
        <rect
          id="Rectangle_14"
          data-name="Rectangle 14"
          width="1.585"
          height="160.345"
          transform="matrix(-0.352, 0.936, -0.936, -0.352, 314.986, 552.926)"
          fill="#979696"
        />
        <rect
          id="Rectangle_15"
          data-name="Rectangle 15"
          width="1.585"
          height="160.345"
          transform="matrix(0.413, 0.911, -0.911, 0.413, 312.331, 491.611)"
          fill="#979696"
        />
        <rect
          id="Rectangle_16"
          data-name="Rectangle 16"
          width="1.585"
          height="160.345"
          transform="matrix(-0.911, 0.413, -0.413, -0.911, 273.266, 598.142)"
          fill="#979696"
        />
      </g>
    </g>
    <g id="Group_8" data-name="Group 8">
      <path
        id="Path_3"
        data-name="Path 3"
        d="M240.231,612.505c-49.074,0-89-39.7-89-88.5s39.925-88.5,89-88.5,89,39.7,89,88.5S289.307,612.505,240.231,612.505Zm0-163.262c-41.456,0-75.184,33.537-75.184,74.762s33.728,74.762,75.184,74.762,75.186-33.539,75.186-74.762S281.689,449.244,240.231,449.244Z"
        fill="#979696"
      />
      <path
        id="Path_4"
        data-name="Path 4"
        d="M240.231,598.768c-41.456,0-75.184-33.539-75.184-74.762s33.728-74.762,75.184-74.762,75.186,33.537,75.186,74.762S281.689,598.768,240.231,598.768Zm0-146.1c-39.556,0-71.738,32-71.738,71.336s32.182,71.335,71.738,71.335,71.739-32,71.739-71.335S279.789,452.669,240.231,452.669Z"
        fill="#5a5a59"
      />
    </g>
  </g>
</svg>
